 http://img823.imageshack.us/img823/5675/breakingupishardtodo201.jpg

Country.......: Australia, USA
Genre.........: Comedy, Romance
Date release..: 02.01.2010 [World]
Director......: Tabari Sturdivant
Writers.......: Nikki Simpson, Tabari Sturdivant
Duration......: 108 min.
More..........: http://www.imdb.com/title/tt1684868
Trailer.......: http://www.imdb.com/video/screenplay/vi3852769817
Trailer.......:

Pilot :
Vince and Shonda have come to the proverbial end of their ropes with one another. Set in Atlanta during the 2008 Presidential Election season, Breaking Up Is Hard To Do is the touching story of what happens when two people feel they have nothing more to give to a relationship. A funny and intimate look at how people fall in love and what it takes to stay there, Breaking Up Is Hard To Do touches on the reality of the outside forces that can make or break a relationship. They say the truth will set you free, but when Shonda and Vince are armed with the truth, will they use it to set themselves free for once and for all?  

Cats :
Demetria McKinney   	 ...  	Shonda
Kendrick Cross 	... 	Vince
Che Broadway 	... 	Che
Tasia Grant 	... 	Monique
Dawnisha Halfkenny 	... 	Tasha
Arle Michel 	... 	Dr. Gina Cohen 

Data Technical :
!!! SAMPLE !!!
Audio.....: English
Subtitles.: None
[ CD1 ]
Format                           : AVI
Format/Info                      : Audio Video Interleave
File size                        : 700 MiB
Duration                         : 54mn 30s
Overall bit rate                 : 1 796 Kbps
Writing application              : VirtualDubMod 1.5.10.2 (build 2540/release)
Writing library                  : VirtualDubMod build 2540/release
Video
ID                               : 0
Format                           : MPEG-4 Visual
Format profile                   : Advanced Simple@L5
Format settings, BVOP            : Yes
Format settings, QPel            : No
Format settings, GMC             : No warppoints
Format settings, Matrix          : Default (H.263)
Muxing mode                      : Packed bitstream
Codec ID                         : XVID
Codec ID/Hint                    : XviD
Duration                         : 54mn 30s
Bit rate                         : 1 594 Kbps
Width                            : 624 pixels
Height                           : 352 pixels
Display aspect ratio             : 16:9
Frame rate                       : 23.976 fps
Color space                      : YUV
Chroma subsampling               : 4:2:0
Bit depth                        : 8 bits
Scan type                        : Progressive
Bits/(Pixel*Frame)               : 0.303
Stream size                      : 621 MiB (89%)
Writing library                  : XviD 64
Audio
ID                               : 1
Format                           : AC-3
Format/Info                      : Audio Coding 3
Mode extension                   : CM (complete main)
Codec ID                         : 2000
Duration                         : 54mn 30s
Bit rate mode                    : Constant
Bit rate                         : 192 Kbps
Channel(s)                       : 2 channels
Channel positions                : Front: L R
Sampling rate                    : 48.0 KHz
Bit depth                        : 16 bits
Stream size                      : 74.8 MiB (11%)
Alignment                        : Split accross interleaves
Interleave, duration             : 42 ms (1.00 video frame)
Interleave, preload duration     : 500 ms
[ CD2 ]
Format                           : AVI
Format/Info                      : Audio Video Interleave
File size                        : 697 MiB
Duration                         : 53mn 36s
Overall bit rate                 : 1 817 Kbps
Writing application              : VirtualDubMod 1.5.10.2 (build 2540/release)
Writing library                  : VirtualDubMod build 2540/release
Video
ID                               : 0
Format                           : MPEG-4 Visual
Format profile                   : Advanced Simple@L5
Format settings, BVOP            : Yes
Format settings, QPel            : No
Format settings, GMC             : No warppoints
Format settings, Matrix          : Default (H.263)
Muxing mode                      : Packed bitstream
Codec ID                         : XVID
Codec ID/Hint                    : XviD
Duration                         : 53mn 36s
Bit rate                         : 1 616 Kbps
Width                            : 624 pixels
Height                           : 352 pixels
Display aspect ratio             : 16:9
Frame rate                       : 23.976 fps
Color space                      : YUV
Chroma subsampling               : 4:2:0
Bit depth                        : 8 bits
Scan type                        : Progressive
Bits/(Pixel*Frame)               : 0.307
Stream size                      : 620 MiB (89%)
Writing library                  : XviD 64
Audio
ID                               : 1
Format                           : AC-3
Format/Info                      : Audio Coding 3
Mode extension                   : CM (complete main)
Codec ID                         : 2000
Duration                         : 53mn 22s
Bit rate mode                    : Constant
Bit rate                         : 192 Kbps
Channel(s)                       : 2 channels
Channel positions                : Front: L R
Sampling rate                    : 48.0 KHz
Bit depth                        : 16 bits
Video delay                      : 31ms
Stream size                      : 73.3 MiB (11%)
Alignment                        : Split accross interleaves
Interleave, duration             : 42 ms (1.00 video frame)
Interleave, preload duration     : 500 ms

Screen : 
http://img69.imageshack.us/img69/5675/breakingupishardtodo201.jpg 
http://img811.imageshack.us/img811/5675/breakingupishardtodo201.jpg 
http://img687.imageshack.us/img687/5675/breakingupishardtodo201.jpg 
http://img8.imageshack.us/img8/5675/breakingupishardtodo201.jpg 
http://img836.imageshack.us/img836/5675/breakingupishardtodo201.jpg